<?xml version="1.0" encoding="UTF-8" standalone="no"?>
<!DOCTYPE svg PUBLIC "-//W3C//DTD SVG 1.1//EN"
 "http://www.w3.org/Graphics/SVG/1.1/DTD/svg11.dtd">
<!-- Generated by graphviz version 2.43.0 (0)
 -->
<!-- Title: %3 Pages: 1 -->
<svg width="752pt" height="940pt"
 viewBox="0.00 0.00 752.32 939.55" xmlns="http://www.w3.org/2000/svg" xmlns:xlink="http://www.w3.org/1999/xlink">
<g id="graph0" class="graph" transform="scale(1 1) rotate(0) translate(4 935.55)">
<title>%3</title>
<polygon fill="white" stroke="transparent" points="-4,4 -4,-935.55 748.32,-935.55 748.32,4 -4,4"/>
<!-- 3061874074782717852 -->
<g id="node1" class="node">
<title>3061874074782717852</title>
<ellipse fill="none" stroke="black" cx="489.93" cy="-775.71" rx="83.69" ry="83.69"/>
<text text-anchor="middle" x="489.93" y="-772.01" font-family="Helvetica,sans-Serif" font-size="14.00">blockwisemerge</text>
</g>
<!-- 1366481188670796643 -->
<g id="node2" class="node">
<title>1366481188670796643</title>
<polygon fill="none" stroke="black" points="516.93,-931.55 462.93,-931.55 462.93,-895.55 516.93,-895.55 516.93,-931.55"/>
<text text-anchor="middle" x="489.93" y="-909.85" font-family="Helvetica,sans-Serif" font-size="14.00">0</text>
</g>
<!-- 3061874074782717852&#45;&gt;1366481188670796643 -->
<g id="edge1" class="edge">
<title>3061874074782717852&#45;&gt;1366481188670796643</title>
<path fill="none" stroke="black" d="M489.93,-859.64C489.93,-868.8 489.93,-877.58 489.93,-885.26"/>
<polygon fill="black" stroke="black" points="486.43,-885.32 489.93,-895.32 493.43,-885.32 486.43,-885.32"/>
</g>
<!-- 2917398827464355713 -->
<g id="node3" class="node">
<title>2917398827464355713</title>
<polygon fill="none" stroke="black" points="571.93,-655.87 517.93,-655.87 517.93,-619.87 571.93,-619.87 571.93,-655.87"/>
<text text-anchor="middle" x="544.93" y="-634.17" font-family="Helvetica,sans-Serif" font-size="14.00">0</text>
</g>
<!-- 2917398827464355713&#45;&gt;3061874074782717852 -->
<g id="edge2" class="edge">
<title>2917398827464355713&#45;&gt;3061874074782717852</title>
<path fill="none" stroke="black" d="M537.97,-656.07C534.44,-664.78 529.87,-676.06 524.96,-688.21"/>
<polygon fill="black" stroke="black" points="521.65,-687.05 521.14,-697.63 528.14,-689.68 521.65,-687.05"/>
</g>
<!-- 5460610793976265532 -->
<g id="node4" class="node">
<title>5460610793976265532</title>
<polygon fill="none" stroke="black" points="480.93,-655.87 426.93,-655.87 426.93,-619.87 480.93,-619.87 480.93,-655.87"/>
<text text-anchor="middle" x="453.93" y="-634.17" font-family="Helvetica,sans-Serif" font-size="14.00">0</text>
</g>
<!-- 5460610793976265532&#45;&gt;3061874074782717852 -->
<g id="edge3" class="edge">
<title>5460610793976265532&#45;&gt;3061874074782717852</title>
<path fill="none" stroke="black" d="M458.49,-656.07C460.59,-663.97 463.24,-673.99 466.12,-684.85"/>
<polygon fill="black" stroke="black" points="462.75,-685.8 468.7,-694.57 469.52,-684.01 462.75,-685.8"/>
</g>
<!-- 4160284578115450705 -->
<g id="node5" class="node">
<title>4160284578115450705</title>
<polygon fill="none" stroke="black" points="364.93,-511.87 310.93,-511.87 310.93,-475.87 364.93,-475.87 364.93,-511.87"/>
<text text-anchor="middle" x="337.93" y="-490.17" font-family="Helvetica,sans-Serif" font-size="14.00">0</text>
</g>
<!-- &#45;2392010823599156716 -->
<g id="node6" class="node">
<title>&#45;2392010823599156716</title>
<polygon fill="none" stroke="black" points="441.93,-583.87 387.93,-583.87 387.93,-547.87 441.93,-547.87 441.93,-583.87"/>
<text text-anchor="middle" x="414.93" y="-562.17" font-family="Helvetica,sans-Serif" font-size="14.00">0</text>
</g>
<!-- 4160284578115450705&#45;&gt;&#45;2392010823599156716 -->
<g id="edge4" class="edge">
<title>4160284578115450705&#45;&gt;&#45;2392010823599156716</title>
<path fill="none" stroke="black" d="M356.97,-512.17C366.48,-520.82 378.14,-531.42 388.5,-540.84"/>
<polygon fill="black" stroke="black" points="386.37,-543.63 396.12,-547.76 391.07,-538.45 386.37,-543.63"/>
</g>
<!-- &#45;2392010823599156716&#45;&gt;5460610793976265532 -->
<g id="edge8" class="edge">
<title>&#45;2392010823599156716&#45;&gt;5460610793976265532</title>
<path fill="none" stroke="black" d="M424.57,-584.17C429.06,-592.22 434.49,-601.97 439.46,-610.88"/>
<polygon fill="black" stroke="black" points="436.48,-612.73 444.4,-619.76 442.59,-609.32 436.48,-612.73"/>
</g>
<!-- &#45;2350407635891819901 -->
<g id="node7" class="node">
<title>&#45;2350407635891819901</title>
<ellipse fill="none" stroke="black" cx="183.93" cy="-255.93" rx="183.87" ry="183.87"/>
<text text-anchor="middle" x="183.93" y="-252.23" font-family="Helvetica,sans-Serif" font-size="14.00">foldby&#45;a&#45;foldby&#45;b&#45;getitem&#45;isin&#45;getitem</text>
</g>
<!-- &#45;2350407635891819901&#45;&gt;4160284578115450705 -->
<g id="edge5" class="edge">
<title>&#45;2350407635891819901&#45;&gt;4160284578115450705</title>
<path fill="none" stroke="black" d="M284.07,-410.35C298.34,-432.22 311.45,-452.29 321.16,-467.16"/>
<polygon fill="black" stroke="black" points="318.35,-469.26 326.74,-475.72 324.21,-465.43 318.35,-469.26"/>
</g>
<!-- &#45;347980762186126584 -->
<g id="node8" class="node">
<title>&#45;347980762186126584</title>
<polygon fill="none" stroke="black" points="436.93,-36 382.93,-36 382.93,0 436.93,0 436.93,-36"/>
<text text-anchor="middle" x="409.93" y="-14.3" font-family="Helvetica,sans-Serif" font-size="14.00">0</text>
</g>
<!-- &#45;347980762186126584&#45;&gt;&#45;2350407635891819901 -->
<g id="edge6" class="edge">
<title>&#45;347980762186126584&#45;&gt;&#45;2350407635891819901</title>
<path fill="none" stroke="black" d="M393.32,-36.35C376.33,-54.08 348.22,-83.43 318.03,-114.95"/>
<polygon fill="black" stroke="black" points="315.12,-112.92 310.73,-122.56 320.17,-117.76 315.12,-112.92"/>
</g>
<!-- &#45;1059646733230051908 -->
<g id="node12" class="node">
<title>&#45;1059646733230051908</title>
<ellipse fill="none" stroke="black" cx="564.93" cy="-255.93" rx="179.27" ry="179.27"/>
<text text-anchor="middle" x="564.93" y="-252.23" font-family="Helvetica,sans-Serif" font-size="14.00">foldby&#45;a&#45;foldby&#45;b&#45;getitem&#45;eq&#45;getitem</text>
</g>
<!-- &#45;347980762186126584&#45;&gt;&#45;1059646733230051908 -->
<g id="edge11" class="edge">
<title>&#45;347980762186126584&#45;&gt;&#45;1059646733230051908</title>
<path fill="none" stroke="black" d="M421.33,-36.35C430.75,-50.69 445.16,-72.63 461.28,-97.16"/>
<polygon fill="black" stroke="black" points="458.4,-99.14 466.81,-105.58 464.25,-95.3 458.4,-99.14"/>
</g>
<!-- 4949972033453279258 -->
<g id="node9" class="node">
<title>4949972033453279258</title>
<polygon fill="none" stroke="black" points="210.93,-36 156.93,-36 156.93,0 210.93,0 210.93,-36"/>
<text text-anchor="middle" x="183.93" y="-14.3" font-family="Helvetica,sans-Serif" font-size="14.00">0</text>
</g>
<!-- 4949972033453279258&#45;&gt;&#45;2350407635891819901 -->
<g id="edge7" class="edge">
<title>4949972033453279258&#45;&gt;&#45;2350407635891819901</title>
<path fill="none" stroke="black" d="M183.93,-36.35C183.93,-43.21 183.93,-51.82 183.93,-61.61"/>
<polygon fill="black" stroke="black" points="180.43,-61.79 183.93,-71.79 187.43,-61.79 180.43,-61.79"/>
</g>
<!-- 3030416733646453805 -->
<g id="node10" class="node">
<title>3030416733646453805</title>
<polygon fill="none" stroke="black" points="586.93,-511.87 532.93,-511.87 532.93,-475.87 586.93,-475.87 586.93,-511.87"/>
<text text-anchor="middle" x="559.93" y="-490.17" font-family="Helvetica,sans-Serif" font-size="14.00">0</text>
</g>
<!-- &#45;3715252685887842231 -->
<g id="node11" class="node">
<title>&#45;3715252685887842231</title>
<polygon fill="none" stroke="black" points="581.93,-583.87 527.93,-583.87 527.93,-547.87 581.93,-547.87 581.93,-583.87"/>
<text text-anchor="middle" x="554.93" y="-562.17" font-family="Helvetica,sans-Serif" font-size="14.00">0</text>
</g>
<!-- 3030416733646453805&#45;&gt;&#45;3715252685887842231 -->
<g id="edge9" class="edge">
<title>3030416733646453805&#45;&gt;&#45;3715252685887842231</title>
<path fill="none" stroke="black" d="M558.7,-512.17C558.15,-519.88 557.48,-529.15 556.87,-537.75"/>
<polygon fill="black" stroke="black" points="553.38,-537.54 556.16,-547.76 560.36,-538.04 553.38,-537.54"/>
</g>
<!-- &#45;3715252685887842231&#45;&gt;2917398827464355713 -->
<g id="edge12" class="edge">
<title>&#45;3715252685887842231&#45;&gt;2917398827464355713</title>
<path fill="none" stroke="black" d="M552.46,-584.17C551.36,-591.88 550.04,-601.15 548.81,-609.75"/>
<polygon fill="black" stroke="black" points="545.33,-609.37 547.38,-619.76 552.26,-610.36 545.33,-609.37"/>
</g>
<!-- &#45;1059646733230051908&#45;&gt;3030416733646453805 -->
<g id="edge10" class="edge">
<title>&#45;1059646733230051908&#45;&gt;3030416733646453805</title>
<path fill="none" stroke="black" d="M561.15,-435.45C560.91,-446.71 560.69,-456.96 560.51,-465.58"/>
<polygon fill="black" stroke="black" points="557.01,-465.52 560.3,-475.59 564.01,-465.66 557.01,-465.52"/>
</g>
</g>
</svg>
