<?xml version="1.0" encoding="UTF-8" standalone="no"?>
<!DOCTYPE svg PUBLIC "-//W3C//DTD SVG 1.1//EN"
 "http://www.w3.org/Graphics/SVG/1.1/DTD/svg11.dtd">
<!-- Generated by graphviz version 2.43.0 (0)
 -->
<!-- Title: %3 Pages: 1 -->
<svg width="276pt" height="1719pt"
 viewBox="0.00 0.00 275.79 1719.13" xmlns="http://www.w3.org/2000/svg" xmlns:xlink="http://www.w3.org/1999/xlink">
<g id="graph0" class="graph" transform="scale(1 1) rotate(0) translate(4 1715.13)">
<title>%3</title>
<polygon fill="white" stroke="transparent" points="-4,4 -4,-1715.13 271.79,-1715.13 271.79,4 -4,4"/>
<!-- &#45;868534555937337967 -->
<g id="node1" class="node">
<title>&#45;868534555937337967</title>
<ellipse fill="none" stroke="black" cx="137.39" cy="-1555.29" rx="83.69" ry="83.69"/>
<text text-anchor="middle" x="137.39" y="-1551.59" font-family="Helvetica,sans-Serif" font-size="14.00">blockwisemerge</text>
</g>
<!-- 8913709972718686970 -->
<g id="node2" class="node">
<title>8913709972718686970</title>
<polygon fill="none" stroke="black" points="164.39,-1711.13 110.39,-1711.13 110.39,-1675.13 164.39,-1675.13 164.39,-1711.13"/>
<text text-anchor="middle" x="137.39" y="-1689.43" font-family="Helvetica,sans-Serif" font-size="14.00">0</text>
</g>
<!-- &#45;868534555937337967&#45;&gt;8913709972718686970 -->
<g id="edge1" class="edge">
<title>&#45;868534555937337967&#45;&gt;8913709972718686970</title>
<path fill="none" stroke="black" d="M137.39,-1639.22C137.39,-1648.38 137.39,-1657.16 137.39,-1664.84"/>
<polygon fill="black" stroke="black" points="133.89,-1664.89 137.39,-1674.89 140.89,-1664.89 133.89,-1664.89"/>
</g>
<!-- &#45;6573576171734165944 -->
<g id="node3" class="node">
<title>&#45;6573576171734165944</title>
<polygon fill="none" stroke="black" points="213.39,-1435.44 159.39,-1435.44 159.39,-1399.44 213.39,-1399.44 213.39,-1435.44"/>
<text text-anchor="middle" x="186.39" y="-1413.74" font-family="Helvetica,sans-Serif" font-size="14.00">0</text>
</g>
<!-- &#45;6573576171734165944&#45;&gt;&#45;868534555937337967 -->
<g id="edge2" class="edge">
<title>&#45;6573576171734165944&#45;&gt;&#45;868534555937337967</title>
<path fill="none" stroke="black" d="M180.19,-1435.65C177.14,-1444.1 173.21,-1454.98 168.98,-1466.72"/>
<polygon fill="black" stroke="black" points="165.63,-1465.7 165.53,-1476.29 172.21,-1468.07 165.63,-1465.7"/>
</g>
<!-- 6751853243360049758 -->
<g id="node4" class="node">
<title>6751853243360049758</title>
<polygon fill="none" stroke="black" points="128.39,-1435.44 74.39,-1435.44 74.39,-1399.44 128.39,-1399.44 128.39,-1435.44"/>
<text text-anchor="middle" x="101.39" y="-1413.74" font-family="Helvetica,sans-Serif" font-size="14.00">0</text>
</g>
<!-- 6751853243360049758&#45;&gt;&#45;868534555937337967 -->
<g id="edge3" class="edge">
<title>6751853243360049758&#45;&gt;&#45;868534555937337967</title>
<path fill="none" stroke="black" d="M105.95,-1435.65C108.05,-1443.54 110.7,-1453.56 113.58,-1464.42"/>
<polygon fill="black" stroke="black" points="110.21,-1465.38 116.16,-1474.15 116.98,-1463.59 110.21,-1465.38"/>
</g>
<!-- &#45;6841917733092827920 -->
<g id="node5" class="node">
<title>&#45;6841917733092827920</title>
<ellipse fill="none" stroke="black" cx="74.39" cy="-1309.5" rx="53.89" ry="53.89"/>
<text text-anchor="middle" x="74.39" y="-1305.8" font-family="Helvetica,sans-Serif" font-size="14.00">operation</text>
</g>
<!-- &#45;6841917733092827920&#45;&gt;6751853243360049758 -->
<g id="edge4" class="edge">
<title>&#45;6841917733092827920&#45;&gt;6751853243360049758</title>
<path fill="none" stroke="black" d="M87.5,-1361.92C89.92,-1371.41 92.35,-1380.96 94.49,-1389.37"/>
<polygon fill="black" stroke="black" points="91.17,-1390.48 97.03,-1399.3 97.95,-1388.75 91.17,-1390.48"/>
</g>
<!-- 6431411145232357802 -->
<g id="node6" class="node">
<title>6431411145232357802</title>
<polygon fill="none" stroke="black" points="97.39,-1219.55 43.39,-1219.55 43.39,-1183.55 97.39,-1183.55 97.39,-1219.55"/>
<text text-anchor="middle" x="70.39" y="-1197.85" font-family="Helvetica,sans-Serif" font-size="14.00">0</text>
</g>
<!-- 6431411145232357802&#45;&gt;&#45;6841917733092827920 -->
<g id="edge5" class="edge">
<title>6431411145232357802&#45;&gt;&#45;6841917733092827920</title>
<path fill="none" stroke="black" d="M71.04,-1219.57C71.31,-1226.79 71.65,-1235.69 72,-1245.05"/>
<polygon fill="black" stroke="black" points="68.51,-1245.46 72.39,-1255.32 75.51,-1245.2 68.51,-1245.46"/>
</g>
<!-- &#45;8985611053565118353 -->
<g id="node7" class="node">
<title>&#45;8985611053565118353</title>
<ellipse fill="none" stroke="black" cx="62.39" cy="-1085.16" rx="62.29" ry="62.29"/>
<text text-anchor="middle" x="62.39" y="-1081.46" font-family="Helvetica,sans-Serif" font-size="14.00">reset_index</text>
</g>
<!-- &#45;8985611053565118353&#45;&gt;6431411145232357802 -->
<g id="edge6" class="edge">
<title>&#45;8985611053565118353&#45;&gt;6431411145232357802</title>
<path fill="none" stroke="black" d="M66.7,-1147.71C67.32,-1156.62 67.94,-1165.39 68.48,-1173.15"/>
<polygon fill="black" stroke="black" points="65,-1173.62 69.19,-1183.35 71.99,-1173.13 65,-1173.62"/>
</g>
<!-- 4665133965754195408 -->
<g id="node8" class="node">
<title>4665133965754195408</title>
<polygon fill="none" stroke="black" points="89.39,-986.76 35.39,-986.76 35.39,-950.76 89.39,-950.76 89.39,-986.76"/>
<text text-anchor="middle" x="62.39" y="-965.06" font-family="Helvetica,sans-Serif" font-size="14.00">0</text>
</g>
<!-- 4665133965754195408&#45;&gt;&#45;8985611053565118353 -->
<g id="edge7" class="edge">
<title>4665133965754195408&#45;&gt;&#45;8985611053565118353</title>
<path fill="none" stroke="black" d="M62.39,-987.14C62.39,-994.25 62.39,-1003 62.39,-1012.3"/>
<polygon fill="black" stroke="black" points="58.89,-1012.56 62.39,-1022.56 65.89,-1012.56 58.89,-1012.56"/>
</g>
<!-- 4814229862955089815 -->
<g id="node9" class="node">
<title>4814229862955089815</title>
<ellipse fill="none" stroke="black" cx="62.39" cy="-865.37" rx="49.29" ry="49.29"/>
<text text-anchor="middle" x="62.39" y="-861.67" font-family="Helvetica,sans-Serif" font-size="14.00">size&#45;tree</text>
</g>
<!-- 4814229862955089815&#45;&gt;4665133965754195408 -->
<g id="edge8" class="edge">
<title>4814229862955089815&#45;&gt;4665133965754195408</title>
<path fill="none" stroke="black" d="M62.39,-914.99C62.39,-923.79 62.39,-932.68 62.39,-940.59"/>
<polygon fill="black" stroke="black" points="58.89,-940.67 62.39,-950.67 65.89,-940.67 58.89,-940.67"/>
</g>
<!-- &#45;8884652904025775881 -->
<g id="node10" class="node">
<title>&#45;8884652904025775881</title>
<polygon fill="none" stroke="black" points="89.39,-779.97 35.39,-779.97 35.39,-743.97 89.39,-743.97 89.39,-779.97"/>
<text text-anchor="middle" x="62.39" y="-758.27" font-family="Helvetica,sans-Serif" font-size="14.00">0</text>
</g>
<!-- &#45;8884652904025775881&#45;&gt;4814229862955089815 -->
<g id="edge9" class="edge">
<title>&#45;8884652904025775881&#45;&gt;4814229862955089815</title>
<path fill="none" stroke="black" d="M62.39,-780.17C62.39,-787.39 62.39,-796.25 62.39,-805.49"/>
<polygon fill="black" stroke="black" points="58.89,-805.59 62.39,-815.59 65.89,-805.59 58.89,-805.59"/>
</g>
<!-- &#45;1086988662000968418 -->
<g id="node11" class="node">
<title>&#45;1086988662000968418</title>
<ellipse fill="none" stroke="black" cx="62.39" cy="-669.63" rx="38.19" ry="38.19"/>
<text text-anchor="middle" x="62.39" y="-665.93" font-family="Helvetica,sans-Serif" font-size="14.00">chunk</text>
</g>
<!-- &#45;1086988662000968418&#45;&gt;&#45;8884652904025775881 -->
<g id="edge10" class="edge">
<title>&#45;1086988662000968418&#45;&gt;&#45;8884652904025775881</title>
<path fill="none" stroke="black" d="M62.39,-708.16C62.39,-716.69 62.39,-725.6 62.39,-733.61"/>
<polygon fill="black" stroke="black" points="58.89,-733.87 62.39,-743.87 65.89,-733.87 58.89,-733.87"/>
</g>
<!-- 6392332746778062949 -->
<g id="node12" class="node">
<title>6392332746778062949</title>
<polygon fill="none" stroke="black" points="89.39,-595.28 35.39,-595.28 35.39,-559.28 89.39,-559.28 89.39,-595.28"/>
<text text-anchor="middle" x="62.39" y="-573.58" font-family="Helvetica,sans-Serif" font-size="14.00">0</text>
</g>
<!-- 6392332746778062949&#45;&gt;&#45;1086988662000968418 -->
<g id="edge11" class="edge">
<title>6392332746778062949&#45;&gt;&#45;1086988662000968418</title>
<path fill="none" stroke="black" d="M62.39,-595.7C62.39,-603 62.39,-611.88 62.39,-620.9"/>
<polygon fill="black" stroke="black" points="58.89,-621.06 62.39,-631.06 65.89,-621.06 58.89,-621.06"/>
</g>
<!-- 2030675673204670624 -->
<g id="node13" class="node">
<title>2030675673204670624</title>
<ellipse fill="none" stroke="black" cx="62.39" cy="-477.78" rx="45.49" ry="45.49"/>
<text text-anchor="middle" x="62.39" y="-474.08" font-family="Helvetica,sans-Serif" font-size="14.00">getitem</text>
</g>
<!-- 2030675673204670624&#45;&gt;6392332746778062949 -->
<g id="edge12" class="edge">
<title>2030675673204670624&#45;&gt;6392332746778062949</title>
<path fill="none" stroke="black" d="M62.39,-523.54C62.39,-532.21 62.39,-541.05 62.39,-548.96"/>
<polygon fill="black" stroke="black" points="58.89,-549.05 62.39,-559.05 65.89,-549.05 58.89,-549.05"/>
</g>
<!-- &#45;347980762186126584 -->
<g id="node14" class="node">
<title>&#45;347980762186126584</title>
<polygon fill="none" stroke="black" points="179.39,-36 125.39,-36 125.39,0 179.39,0 179.39,-36"/>
<text text-anchor="middle" x="152.39" y="-14.3" font-family="Helvetica,sans-Serif" font-size="14.00">0</text>
</g>
<!-- &#45;347980762186126584&#45;&gt;2030675673204670624 -->
<g id="edge13" class="edge">
<title>&#45;347980762186126584&#45;&gt;2030675673204670624</title>
<path fill="none" stroke="black" d="M130.98,-36.11C120.06,-45.72 107.25,-58.48 98.39,-72 60.86,-129.31 43.39,-147.49 43.39,-215.99 43.39,-215.99 43.39,-215.99 43.39,-298.64 43.39,-340.39 48.62,-387.35 53.59,-422.56"/>
<polygon fill="black" stroke="black" points="50.15,-423.24 55.05,-432.63 57.08,-422.23 50.15,-423.24"/>
</g>
<!-- &#45;4560641387336988479 -->
<g id="node19" class="node">
<title>&#45;4560641387336988479</title>
<ellipse fill="none" stroke="black" cx="152.39" cy="-117.5" rx="45.49" ry="45.49"/>
<text text-anchor="middle" x="152.39" y="-113.8" font-family="Helvetica,sans-Serif" font-size="14.00">getitem</text>
</g>
<!-- &#45;347980762186126584&#45;&gt;&#45;4560641387336988479 -->
<g id="edge19" class="edge">
<title>&#45;347980762186126584&#45;&gt;&#45;4560641387336988479</title>
<path fill="none" stroke="black" d="M152.39,-36.43C152.39,-43.59 152.39,-52.32 152.39,-61.35"/>
<polygon fill="black" stroke="black" points="148.89,-61.6 152.39,-71.6 155.89,-61.6 148.89,-61.6"/>
</g>
<!-- &#45;2507472452935097502 -->
<g id="node28" class="node">
<title>&#45;2507472452935097502</title>
<ellipse fill="none" stroke="black" cx="205.39" cy="-477.78" rx="45.49" ry="45.49"/>
<text text-anchor="middle" x="205.39" y="-474.08" font-family="Helvetica,sans-Serif" font-size="14.00">getitem</text>
</g>
<!-- &#45;347980762186126584&#45;&gt;&#45;2507472452935097502 -->
<g id="edge29" class="edge">
<title>&#45;347980762186126584&#45;&gt;&#45;2507472452935097502</title>
<path fill="none" stroke="black" d="M175.96,-36.04C187.05,-45.37 199.35,-57.9 206.39,-72 235.22,-129.76 225.39,-151.44 225.39,-215.99 225.39,-215.99 225.39,-215.99 225.39,-298.64 225.39,-340.42 219.89,-387.37 214.66,-422.58"/>
<polygon fill="black" stroke="black" points="211.18,-422.23 213.13,-432.65 218.1,-423.29 211.18,-422.23"/>
</g>
<!-- &#45;7193942339856621086 -->
<g id="node15" class="node">
<title>&#45;7193942339856621086</title>
<polygon fill="none" stroke="black" points="125.39,-396.29 71.39,-396.29 71.39,-360.29 125.39,-360.29 125.39,-396.29"/>
<text text-anchor="middle" x="98.39" y="-374.59" font-family="Helvetica,sans-Serif" font-size="14.00">0</text>
</g>
<!-- &#45;7193942339856621086&#45;&gt;2030675673204670624 -->
<g id="edge14" class="edge">
<title>&#45;7193942339856621086&#45;&gt;2030675673204670624</title>
<path fill="none" stroke="black" d="M91.96,-396.72C88.95,-404.85 85.21,-415.01 81.4,-425.32"/>
<polygon fill="black" stroke="black" points="78.08,-424.2 77.9,-434.79 84.65,-426.62 78.08,-424.2"/>
</g>
<!-- 7297651162368308422 -->
<g id="node16" class="node">
<title>7297651162368308422</title>
<ellipse fill="none" stroke="black" cx="98.39" cy="-297.64" rx="26.8" ry="26.8"/>
<text text-anchor="middle" x="98.39" y="-293.94" font-family="Helvetica,sans-Serif" font-size="14.00">isin</text>
</g>
<!-- 7297651162368308422&#45;&gt;&#45;7193942339856621086 -->
<g id="edge15" class="edge">
<title>7297651162368308422&#45;&gt;&#45;7193942339856621086</title>
<path fill="none" stroke="black" d="M98.39,-324.39C98.39,-332.49 98.39,-341.46 98.39,-349.69"/>
<polygon fill="black" stroke="black" points="94.89,-349.92 98.39,-359.92 101.89,-349.92 94.89,-349.92"/>
</g>
<!-- 4949972033453279258 -->
<g id="node17" class="node">
<title>4949972033453279258</title>
<polygon fill="none" stroke="black" points="125.39,-234.99 71.39,-234.99 71.39,-198.99 125.39,-198.99 125.39,-234.99"/>
<text text-anchor="middle" x="98.39" y="-213.29" font-family="Helvetica,sans-Serif" font-size="14.00">0</text>
</g>
<!-- 4949972033453279258&#45;&gt;7297651162368308422 -->
<g id="edge16" class="edge">
<title>4949972033453279258&#45;&gt;7297651162368308422</title>
<path fill="none" stroke="black" d="M98.39,-235.06C98.39,-242.59 98.39,-251.75 98.39,-260.67"/>
<polygon fill="black" stroke="black" points="94.89,-260.93 98.39,-270.94 101.89,-260.94 94.89,-260.93"/>
</g>
<!-- &#45;6759288977581967004 -->
<g id="node18" class="node">
<title>&#45;6759288977581967004</title>
<polygon fill="none" stroke="black" points="197.39,-234.99 143.39,-234.99 143.39,-198.99 197.39,-198.99 197.39,-234.99"/>
<text text-anchor="middle" x="170.39" y="-213.29" font-family="Helvetica,sans-Serif" font-size="14.00">0</text>
</g>
<!-- &#45;6759288977581967004&#45;&gt;7297651162368308422 -->
<g id="edge17" class="edge">
<title>&#45;6759288977581967004&#45;&gt;7297651162368308422</title>
<path fill="none" stroke="black" d="M154.77,-235.06C145.5,-245.19 133.53,-258.26 123.01,-269.75"/>
<polygon fill="black" stroke="black" points="120.18,-267.66 116.01,-277.4 125.34,-272.38 120.18,-267.66"/>
</g>
<!-- &#45;818770434836380306 -->
<g id="node30" class="node">
<title>&#45;818770434836380306</title>
<ellipse fill="none" stroke="black" cx="170.39" cy="-297.64" rx="22.2" ry="22.2"/>
<text text-anchor="middle" x="170.39" y="-293.94" font-family="Helvetica,sans-Serif" font-size="14.00">eq</text>
</g>
<!-- &#45;6759288977581967004&#45;&gt;&#45;818770434836380306 -->
<g id="edge32" class="edge">
<title>&#45;6759288977581967004&#45;&gt;&#45;818770434836380306</title>
<path fill="none" stroke="black" d="M170.39,-235.06C170.39,-243.84 170.39,-254.84 170.39,-265.1"/>
<polygon fill="black" stroke="black" points="166.89,-265.4 170.39,-275.4 173.89,-265.4 166.89,-265.4"/>
</g>
<!-- &#45;4560641387336988479&#45;&gt;&#45;6759288977581967004 -->
<g id="edge18" class="edge">
<title>&#45;4560641387336988479&#45;&gt;&#45;6759288977581967004</title>
<path fill="none" stroke="black" d="M160.5,-162.4C162.16,-171.39 163.86,-180.61 165.38,-188.81"/>
<polygon fill="black" stroke="black" points="161.98,-189.7 167.24,-198.9 168.86,-188.43 161.98,-189.7"/>
</g>
<!-- &#45;4717255683694102441 -->
<g id="node20" class="node">
<title>&#45;4717255683694102441</title>
<ellipse fill="none" stroke="black" cx="202.39" cy="-1309.5" rx="53.89" ry="53.89"/>
<text text-anchor="middle" x="202.39" y="-1305.8" font-family="Helvetica,sans-Serif" font-size="14.00">operation</text>
</g>
<!-- &#45;4717255683694102441&#45;&gt;&#45;6573576171734165944 -->
<g id="edge20" class="edge">
<title>&#45;4717255683694102441&#45;&gt;&#45;6573576171734165944</title>
<path fill="none" stroke="black" d="M194.44,-1363.16C193.08,-1372.16 191.72,-1381.17 190.52,-1389.15"/>
<polygon fill="black" stroke="black" points="187.02,-1388.89 188.98,-1399.3 193.94,-1389.94 187.02,-1388.89"/>
</g>
<!-- 1380314139109563454 -->
<g id="node21" class="node">
<title>1380314139109563454</title>
<polygon fill="none" stroke="black" points="230.39,-1219.55 176.39,-1219.55 176.39,-1183.55 230.39,-1183.55 230.39,-1219.55"/>
<text text-anchor="middle" x="203.39" y="-1197.85" font-family="Helvetica,sans-Serif" font-size="14.00">0</text>
</g>
<!-- 1380314139109563454&#45;&gt;&#45;4717255683694102441 -->
<g id="edge21" class="edge">
<title>1380314139109563454&#45;&gt;&#45;4717255683694102441</title>
<path fill="none" stroke="black" d="M203.23,-1219.57C203.17,-1226.79 203.08,-1235.69 202.99,-1245.05"/>
<polygon fill="black" stroke="black" points="199.49,-1245.29 202.9,-1255.32 206.49,-1245.35 199.49,-1245.29"/>
</g>
<!-- 6146835111854533385 -->
<g id="node22" class="node">
<title>6146835111854533385</title>
<ellipse fill="none" stroke="black" cx="205.39" cy="-1085.16" rx="62.29" ry="62.29"/>
<text text-anchor="middle" x="205.39" y="-1081.46" font-family="Helvetica,sans-Serif" font-size="14.00">reset_index</text>
</g>
<!-- 6146835111854533385&#45;&gt;1380314139109563454 -->
<g id="edge22" class="edge">
<title>6146835111854533385&#45;&gt;1380314139109563454</title>
<path fill="none" stroke="black" d="M204.32,-1147.71C204.16,-1156.62 204.01,-1165.39 203.87,-1173.15"/>
<polygon fill="black" stroke="black" points="200.37,-1173.29 203.7,-1183.35 207.37,-1173.42 200.37,-1173.29"/>
</g>
<!-- 8804430840803278257 -->
<g id="node23" class="node">
<title>8804430840803278257</title>
<polygon fill="none" stroke="black" points="232.39,-986.76 178.39,-986.76 178.39,-950.76 232.39,-950.76 232.39,-986.76"/>
<text text-anchor="middle" x="205.39" y="-965.06" font-family="Helvetica,sans-Serif" font-size="14.00">0</text>
</g>
<!-- 8804430840803278257&#45;&gt;6146835111854533385 -->
<g id="edge23" class="edge">
<title>8804430840803278257&#45;&gt;6146835111854533385</title>
<path fill="none" stroke="black" d="M205.39,-987.14C205.39,-994.25 205.39,-1003 205.39,-1012.3"/>
<polygon fill="black" stroke="black" points="201.89,-1012.56 205.39,-1022.56 208.89,-1012.56 201.89,-1012.56"/>
</g>
<!-- 5197925733727688670 -->
<g id="node24" class="node">
<title>5197925733727688670</title>
<ellipse fill="none" stroke="black" cx="205.39" cy="-865.37" rx="49.29" ry="49.29"/>
<text text-anchor="middle" x="205.39" y="-861.67" font-family="Helvetica,sans-Serif" font-size="14.00">size&#45;tree</text>
</g>
<!-- 5197925733727688670&#45;&gt;8804430840803278257 -->
<g id="edge24" class="edge">
<title>5197925733727688670&#45;&gt;8804430840803278257</title>
<path fill="none" stroke="black" d="M205.39,-914.99C205.39,-923.79 205.39,-932.68 205.39,-940.59"/>
<polygon fill="black" stroke="black" points="201.89,-940.67 205.39,-950.67 208.89,-940.67 201.89,-940.67"/>
</g>
<!-- 5905423687734165954 -->
<g id="node25" class="node">
<title>5905423687734165954</title>
<polygon fill="none" stroke="black" points="232.39,-779.97 178.39,-779.97 178.39,-743.97 232.39,-743.97 232.39,-779.97"/>
<text text-anchor="middle" x="205.39" y="-758.27" font-family="Helvetica,sans-Serif" font-size="14.00">0</text>
</g>
<!-- 5905423687734165954&#45;&gt;5197925733727688670 -->
<g id="edge25" class="edge">
<title>5905423687734165954&#45;&gt;5197925733727688670</title>
<path fill="none" stroke="black" d="M205.39,-780.17C205.39,-787.39 205.39,-796.25 205.39,-805.49"/>
<polygon fill="black" stroke="black" points="201.89,-805.59 205.39,-815.59 208.89,-805.59 201.89,-805.59"/>
</g>
<!-- &#45;8782914024563071150 -->
<g id="node26" class="node">
<title>&#45;8782914024563071150</title>
<ellipse fill="none" stroke="black" cx="205.39" cy="-669.63" rx="38.19" ry="38.19"/>
<text text-anchor="middle" x="205.39" y="-665.93" font-family="Helvetica,sans-Serif" font-size="14.00">chunk</text>
</g>
<!-- &#45;8782914024563071150&#45;&gt;5905423687734165954 -->
<g id="edge26" class="edge">
<title>&#45;8782914024563071150&#45;&gt;5905423687734165954</title>
<path fill="none" stroke="black" d="M205.39,-708.16C205.39,-716.69 205.39,-725.6 205.39,-733.61"/>
<polygon fill="black" stroke="black" points="201.89,-733.87 205.39,-743.87 208.89,-733.87 201.89,-733.87"/>
</g>
<!-- &#45;7508040535560082653 -->
<g id="node27" class="node">
<title>&#45;7508040535560082653</title>
<polygon fill="none" stroke="black" points="232.39,-595.28 178.39,-595.28 178.39,-559.28 232.39,-559.28 232.39,-595.28"/>
<text text-anchor="middle" x="205.39" y="-573.58" font-family="Helvetica,sans-Serif" font-size="14.00">0</text>
</g>
<!-- &#45;7508040535560082653&#45;&gt;&#45;8782914024563071150 -->
<g id="edge27" class="edge">
<title>&#45;7508040535560082653&#45;&gt;&#45;8782914024563071150</title>
<path fill="none" stroke="black" d="M205.39,-595.7C205.39,-603 205.39,-611.88 205.39,-620.9"/>
<polygon fill="black" stroke="black" points="201.89,-621.06 205.39,-631.06 208.89,-621.06 201.89,-621.06"/>
</g>
<!-- &#45;2507472452935097502&#45;&gt;&#45;7508040535560082653 -->
<g id="edge28" class="edge">
<title>&#45;2507472452935097502&#45;&gt;&#45;7508040535560082653</title>
<path fill="none" stroke="black" d="M205.39,-523.54C205.39,-532.21 205.39,-541.05 205.39,-548.96"/>
<polygon fill="black" stroke="black" points="201.89,-549.05 205.39,-559.05 208.89,-549.05 201.89,-549.05"/>
</g>
<!-- &#45;1990853842827974760 -->
<g id="node29" class="node">
<title>&#45;1990853842827974760</title>
<polygon fill="none" stroke="black" points="197.39,-396.29 143.39,-396.29 143.39,-360.29 197.39,-360.29 197.39,-396.29"/>
<text text-anchor="middle" x="170.39" y="-374.59" font-family="Helvetica,sans-Serif" font-size="14.00">0</text>
</g>
<!-- &#45;1990853842827974760&#45;&gt;&#45;2507472452935097502 -->
<g id="edge30" class="edge">
<title>&#45;1990853842827974760&#45;&gt;&#45;2507472452935097502</title>
<path fill="none" stroke="black" d="M176.65,-396.72C179.57,-404.85 183.22,-415.01 186.92,-425.32"/>
<polygon fill="black" stroke="black" points="183.65,-426.56 190.32,-434.79 190.23,-424.19 183.65,-426.56"/>
</g>
<!-- &#45;818770434836380306&#45;&gt;&#45;1990853842827974760 -->
<g id="edge31" class="edge">
<title>&#45;818770434836380306&#45;&gt;&#45;1990853842827974760</title>
<path fill="none" stroke="black" d="M170.39,-320.13C170.39,-329.35 170.39,-340.23 170.39,-350"/>
<polygon fill="black" stroke="black" points="166.89,-350.05 170.39,-360.05 173.89,-350.05 166.89,-350.05"/>
</g>
</g>
</svg>
